Coordinates
version=1
nRows=19
nColumns=36
inDegrees=yes

Units are S.I. units (second, meters, Newtons, ...)
If the header above contains a line with 'inDegrees', this indicates whether rotational values are in degrees (yes) or radians (no).

endheader
time	pelvis_tilt	pelvis_list	pelvis_rotation	pelvis_tx	pelvis_ty	pelvis_tz	hip_flexion_r	hip_adduction_r	hip_rotation_r	knee_angle_r	knee_angle_r_beta	ankle_angle_r	subtalar_angle_r	mtp_angle_r	hip_flexion_l	hip_adduction_l	hip_rotation_l	knee_angle_l	knee_angle_l_beta	ankle_angle_l	subtalar_angle_l	mtp_angle_l	lumbar_extension	lumbar_bending	lumbar_rotation	arm_flex_r	arm_add_r	arm_rot_r	elbow_flex_r	pro_sup_r	arm_flex_l	arm_add_l	arm_rot_l	elbow_flex_l	pro_sup_l
      1.96666670	    -28.53325523	      2.38593192	     -3.88786246	      0.53809464	      0.71370494	     -0.00335257	     80.74677249	    -11.71728330	     -3.31941650	     80.86253648	      1.41131750	     34.37609712	      0.09954889	     -7.49999977	     80.35343558	    -11.00289819	     -1.31768568	     80.06381754	      1.39737723	     31.31859953	     -7.46054046	     -7.49999977	    -21.01072140	     -1.83508209	     11.20809108	     75.79952199	     -8.59095656	     74.88877648	    117.77625024	     79.67388849	     67.52252175	      5.68942541	     66.24415196	    117.38982624	     94.61984460
      1.98333330	    -28.81372947	      2.35920892	     -3.85648658	      0.52980231	      0.70917653	     -0.00186157	     81.55552590	    -11.62651114	     -3.22511947	     81.35385762	      1.41989267	     34.13746197	     -0.28986389	     -7.49999980	     81.21988821	    -10.99004752	     -1.15775241	     80.60234434	      1.40677629	     31.40392336	     -7.47101171	     -7.49999980	    -21.24815576	     -1.68396174	     11.32880770	     77.42149646	     -8.31215356	     75.81793439	    117.55541619	     78.77287794	     68.36727120	      5.85894189	     64.78194897	    117.14364363	    101.84379308
      2.00000000	    -28.94761448	      2.42587316	     -3.93632195	      0.53739394	      0.70156095	     -0.00409319	     82.27336902	    -11.53407021	     -3.01597190	     82.09822584	      1.43288435	     34.28123732	     -0.36419076	     -7.49999979	     81.81767042	    -10.94469054	     -0.98719179	     81.24878312	      1.41805878	     31.58693254	     -7.56664790	     -7.49999979	    -21.06672512	     -1.72651438	     11.10846306	     77.03936730	     -7.88131624	     75.44935778	    118.69939522	     78.35445106	     67.93894410	      6.03596186	     64.34168744	    118.22050598	    100.21792982
      2.01666670	    -29.07613527	      2.52686700	     -4.07529798	      0.53678207	      0.69897651	     -0.00360938	     82.88484031	    -11.30042171	     -2.68178536	     82.71344669	      1.44362198	     34.27676186	     -0.72952125	     -7.49999981	     82.30879655	    -10.97582244	     -0.89342347	     81.85224676	      1.42859121	     32.02368374	     -7.40500037	     -7.49999981	    -20.81417833	     -1.77135396	     11.00798724	     76.69325907	     -7.27287188	     75.34301350	    119.37038715	     79.78088448	     67.27669260	      5.97125570	     63.56422850	    119.03438018	    103.42682235
      2.03333330	    -29.17071575	      2.56833008	     -4.06473314	      0.52917929	      0.70046026	     -0.00200706	     83.34015567	    -11.19521453	     -2.48183492	     83.14886713	      1.45122150	     34.31023601	     -0.83794485	     -7.49999981	     82.78900021	    -10.92111598	     -0.78740623	     82.30898486	      1.43656279	     32.11012089	     -7.39573729	     -7.49999981	    -21.24320934	     -1.83476191	     11.14517236	     77.30960326	     -7.43639425	     75.16283515	    119.22663484	     79.77806308	     67.18722527	      5.70448845	     63.75064578	    118.77047331	    103.45043061
      2.05000000	    -29.22105013	      2.66505015	     -4.28201027	      0.53615437	      0.69901683	     -0.00352093	     83.57694632	    -10.90064524	     -2.25101290	     83.29693072	      1.45380570	     34.19564801	     -1.13222177	     -7.49999981	     82.92817361	    -11.01878485	     -0.77542684	     82.55453777	      1.44084850	     32.48551433	     -7.10702278	     -7.49999981	    -21.32810498	     -2.03826250	     11.17607285	     77.45126441	     -7.26226505	     76.03026640	    119.35549561	     79.88972085	     66.95594247	      5.90980565	     64.45102647	    118.61367323	    103.56475139
      2.06666670	    -29.33305505	      2.71597321	     -4.41202553	      0.52992942	      0.69795575	     -0.00767994	     83.92906733	    -10.75123313	     -2.08177220	     83.41951862	      1.45594526	     34.07723243	     -1.23661038	     -7.49999981	     83.29107922	    -11.01104737	     -0.75093851	     82.87843618	      1.44650159	     32.54711773	     -7.07465596	     -7.49999981	    -21.31469472	     -1.94931311	     10.65498953	     77.93017972	     -7.38934708	     75.90063463	    119.42437803	     79.91066725	     67.98467879	      6.62783821	     63.85293172	    118.20462055	    103.57072701
      2.08333330	    -28.99773426	      2.76931627	     -4.59850130	      0.54322564	      0.70047991	     -0.00526996	     83.38749559	    -10.55949002	     -1.88724968	     83.22948840	      1.45262861	     34.02296483	     -1.35301614	     -7.49999981	     82.65396386	    -10.89071466	     -0.68154815	     82.84618907	      1.44593877	     32.81638253	     -6.96526287	     -7.49999981	    -21.39538067	     -2.08150679	     10.61000115	     76.25309816	     -6.80596394	     76.18118886	    119.61164474	     78.95951057	     66.93101016	      6.45506227	     64.59596728	    118.19992618	    101.38996111
      2.10000000	    -28.86868154	      2.98173600	     -4.76276102	      0.54236017	      0.70065137	     -0.00521331	     83.08705977	    -10.32581865	     -1.46308412	     82.96121705	      1.44794639	     33.95151010	     -1.44882628	     -7.49999982	     82.05396075	    -10.77684680	     -0.80930917	     82.58642307	      1.44140500	     33.10645438	     -6.88008493	     -7.49999982	    -21.02696159	     -2.40757177	     10.50330477	     75.57556610	     -6.70174126	     75.82206621	    119.46662890	     77.91718766	     66.85515804	      6.71680600	     63.93942905	    118.43761329	     99.44381712
      2.11666670	    -28.44213925	      3.02194535	     -4.85291349	      0.53590712	      0.70943223	     -0.00897242	     82.14544917	    -10.23469492	     -1.34398019	     82.16118928	      1.43398327	     33.56686256	     -1.59393458	     -7.49999983	     81.03946213	    -10.63881686	     -0.91624160	     81.96437097	      1.43054814	     33.24978846	     -6.46885260	     -7.49999983	    -21.46356677	     -2.46453957	     10.65235026	     75.45587312	     -7.65703945	     75.24512930	    119.11501478	     81.23884196	     67.00955574	      6.59420697	     63.40202932	    117.27442181	    105.02891223
      2.13333330	    -28.17485403	      3.11809546	     -4.91110493	      0.54394711	      0.71426692	     -0.01040285	     81.04268449	    -10.22660044	     -1.25553834	     81.09710442	      1.41541149	     33.29569191	     -1.54312927	     -7.49999983	     79.81303737	    -10.37226870	     -1.02798664	     80.97645519	      1.41330576	     33.14568661	     -6.34644111	     -7.49999983	    -21.33676868	     -2.50109787	     10.79751585	     74.45314173	     -7.88146454	     76.31689757	    119.13195868	     81.33389410	     65.70320838	      6.26826018	     64.33509890	    117.50215198	    105.06239112
      2.15000000	    -28.05048949	      3.11491758	     -4.92947783	      0.54106242	      0.71377966	     -0.00505430	     80.23328736	    -10.11608430	     -1.21543582	     80.23817086	      1.40042027	     33.03454168	     -1.54150394	     -7.49999983	     78.95032069	    -10.30825648	     -1.12273942	     80.15935731	      1.39904471	     32.96563294	     -6.24501540	     -7.49999983	    -20.53475644	     -2.48677035	     11.05593287	     74.26168878	     -7.46175634	     75.98298203	    119.61585288	     81.39658222	     65.91733923	      6.79693887	     64.54725752	    118.89270317	    105.03777426
      2.16666670	    -27.77028311	      3.10899768	     -4.98808024	      0.54086555	      0.72336924	     -0.00490636	     79.16124830	     -9.98926668	     -1.28560948	     79.13649774	      1.38119244	     32.63938589	     -1.81088856	     -7.49999983	     77.79330823	    -10.26218759	     -1.21418665	     79.03866846	      1.37948500	     32.77037655	     -6.21287800	     -7.49999983	    -20.32254131	     -2.55118895	     10.78362677	     74.18901927	     -6.96989625	     74.88289141	    119.72814952	     81.43090533	     66.53585401	      6.72979251	     65.62763331	    119.77061163	    104.98371751
      2.18333330	    -27.40891693	      3.13342973	     -5.12280823	      0.54837298	      0.72854596	     -0.00657975	     77.83203321	     -9.86141020	     -1.37352442	     77.87051465	      1.35909687	     32.30188051	     -1.87955029	     -7.49999983	     76.29740700	    -10.20886056	     -1.36086059	     77.71208259	      1.35633171	     32.46434734	     -6.17508380	     -7.49999983	    -19.85842305	     -2.66060985	     10.53333799	     73.55061819	     -6.50118675	     74.61163561	    120.43758829	     81.63733216	     66.08759420	      6.71310493	     65.23213131	    119.92979208	    104.86356626
      2.20000000	    -27.01209564	      3.15733964	     -5.24496690	      0.54773616	      0.73213129	     -0.00674174	     76.51963948	     -9.69355859	     -1.39719316	     76.66064434	      1.33798065	     32.04339885	     -1.84267754	     -7.49999984	     74.82437654	    -10.20258014	     -1.58355457	     76.45796776	      1.33444328	     32.11811252	     -6.10804316	     -7.49999984	    -19.08637826	     -2.73591701	     10.61675375	     73.17750557	     -6.76830094	     74.39582117	    120.15697970	     81.77371700	     66.20984001	      6.55188234	     64.40780755	    119.56869099	    104.75372374
      2.21666670	    -26.55673565	      3.09070694	     -5.32595706	      0.55432000	      0.75077734	     -0.00933797	     74.55081783	     -9.64409247	     -1.67161475	     74.68999619	      1.30358635	     31.63976329	     -1.84821562	     -7.49999984	     72.83206143	    -10.04348968	     -1.73743315	     74.54015726	      1.30097117	     31.68472932	     -6.05576244	     -7.49999984	    -18.59893234	     -2.54593916	     10.43897331	     71.90235962	     -6.79333222	     75.19482967	    120.43794475	     81.29453901	     64.63218271	      6.50051613	     65.95903586	    119.84958939	    103.06899945
      2.23333330	    -25.94767775	      3.13310059	     -5.46056725	      0.55447586	      0.76284743	     -0.00901624	     72.40519230	     -9.53075868	     -1.76665518	     72.51819190	      1.26568122	     30.80639290	     -1.79427072	     -7.49999984	     70.55472671	     -9.90304387	     -2.10400419	     72.30916346	      1.26203298	     30.86588961	     -5.90785070	     -7.49999984	    -18.68832716	     -2.75760694	     10.14982143	     71.53275631	     -7.20465124	     73.89201343	    120.85543814	     81.69624337	     64.91590151	      6.90662048	     65.93076463	    119.55041209	    103.07152471
      2.25000000	    -25.59567702	      3.08090309	     -5.52272284	      0.55451653	      0.76953177	     -0.00861258	     70.48738124	     -9.46470646	     -2.09477454	     70.29994057	      1.22696543	     30.09585986	     -1.63807086	     -7.49999984	     68.59638177	     -9.80423609	     -2.39313010	     70.07012054	      1.22295431	     30.07426137	     -5.73451605	     -7.49999984	    -17.81005019	     -2.78546650	     10.17391685	     70.89997056	     -6.94595679	     73.36716408	    120.80973948	     81.90933367	     65.29044548	      7.01898941	     65.73486333	    119.41764667	    103.11340678
      2.26666670	    -24.88203473	      3.04509634	     -5.62490088	      0.56173162	      0.78024832	     -0.01071552	     68.01149123	     -9.41415397	     -2.33351409	     67.91810365	      1.18539453	     29.34319891	     -1.56225074	     -7.49999984	     66.06811493	     -9.56775297	     -2.61602832	     67.64482136	      1.18062485	     29.10991615	     -5.80248066	     -7.49999984	    -17.22631929	     -2.83351168	      9.88850625	     69.66446942	     -6.82725952	     72.74733156	    121.05378469	     82.62606581	     64.90438711	      7.10038221	     66.87827970	    119.47825691	    103.30088465
